<svg width="12" height="10" viewBox="0 0 12 10" fill="none" xmlns="http://www.w3.org/2000/svg">
<path d="M2.1875 6.41667H3.9375V5.54167H2.47917V3.79167H3.9375V2.91667H2.1875C2.02222 2.91667 1.88368 2.97257 1.77188 3.08437C1.66007 3.19618 1.60417 3.33472 1.60417 3.5V5.83333C1.60417 5.99861 1.66007 6.13715 1.77188 6.24896C1.88368 6.36076 2.02222 6.41667 2.1875 6.41667ZM4.4625 6.41667H6.2125C6.37778 6.41667 6.51632 6.36076 6.62813 6.24896C6.73993 6.13715 6.79583 5.99861 6.79583 5.83333V4.95833C6.79583 4.79306 6.73993 4.63993 6.62813 4.49896C6.51632 4.35799 6.37778 4.2875 6.2125 4.2875H5.3375V3.79167H6.79583V2.91667H5.04583C4.88056 2.91667 4.74201 2.97257 4.63021 3.08437C4.5184 3.19618 4.4625 3.33472 4.4625 3.5V4.375C4.4625 4.54028 4.5184 4.68854 4.63021 4.81979C4.74201 4.95104 4.88056 5.01667 5.04583 5.01667H5.92083V5.54167H4.4625V6.41667ZM8.3125 6.41667H9.1875L10.2083 2.91667H9.33333L8.75 4.92917L8.16667 2.91667H7.29167L8.3125 6.41667ZM1.16667 9.33333C0.845833 9.33333 0.571181 9.2191 0.342708 8.99063C0.114236 8.76215 0 8.4875 0 8.16667V1.16667C0 0.845833 0.114236 0.571181 0.342708 0.342708C0.571181 0.114236 0.845833 0 1.16667 0H10.5C10.8208 0 11.0955 0.114236 11.324 0.342708C11.5524 0.571181 11.6667 0.845833 11.6667 1.16667V8.16667C11.6667 8.4875 11.5524 8.76215 11.324 8.99063C11.0955 9.2191 10.8208 9.33333 10.5 9.33333H1.16667ZM1.16667 8.16667H10.5V1.16667H1.16667V8.16667ZM1.16667 8.16667V1.16667V8.16667Z" fill="#434655"/>
</svg>
