<svg width="18" height="18" viewBox="0 0 18 18" fill="none" xmlns="http://www.w3.org/2000/svg">
<path d="M8.55 17.1C6.365 17.1 4.46104 16.3756 2.83812 14.9269C1.21521 13.4781 0.285 11.6692 0.0475 9.5H1.995C2.21667 11.1467 2.94896 12.5083 4.19187 13.585C5.43479 14.6617 6.8875 15.2 8.55 15.2C10.4025 15.2 11.974 14.5548 13.2644 13.2644C14.5548 11.974 15.2 10.4025 15.2 8.55C15.2 6.6975 14.5548 5.12604 13.2644 3.83562C11.974 2.54521 10.4025 1.9 8.55 1.9C7.4575 1.9 6.43625 2.15333 5.48625 2.66C4.53625 3.16667 3.73667 3.86333 3.0875 4.75H5.7V6.65H0V0.95H1.9V3.1825C2.7075 2.16917 3.69313 1.38542 4.85688 0.83125C6.02063 0.277083 7.25167 0 8.55 0C9.7375 0 10.8498 0.225625 11.8869 0.676875C12.924 1.12812 13.8265 1.73771 14.5944 2.50563C15.3623 3.27354 15.9719 4.17604 16.4231 5.21313C16.8744 6.25021 17.1 7.3625 17.1 8.55C17.1 9.7375 16.8744 10.8498 16.4231 11.8869C15.9719 12.924 15.3623 13.8265 14.5944 14.5944C13.8265 15.3623 12.924 15.9719 11.8869 16.4231C10.8498 16.8744 9.7375 17.1 8.55 17.1ZM11.21 12.54L7.6 8.93V3.8H9.5V8.17L12.54 11.21L11.21 12.54Z" fill="#434655"/>
</svg>
